<?xml version="1.0" encoding="UTF-8" standalone="no"?><svg xmlns="http://www.w3.org/2000/svg" xmlns:xlink="http://www.w3.org/1999/xlink" contentStyleType="text/css" height="755px" preserveAspectRatio="none" style="width:884px;height:755px;background:#FFFFFF;" version="1.1" viewBox="0 0 884 755" width="884px" zoomAndPan="magnify"><defs/><g><!--MD5=[b054c4dadabcad4a43b2d37a95649df7]
class VCO--><g id="elem_VCO"><rect codeLine="1" fill="#F1F1F1" height="145.7813" id="VCO" rx="2.5" ry="2.5" style="stroke:#181818;stroke-width:0.5;" width="171" x="358.5" y="478"/><ellipse cx="424.25" cy="494" fill="#ADD1B2" rx="11" ry="11" style="stroke:#181818;stroke-width:1.0;"/><path d="M426.5938,489.6719 C425.6563,489.2344 425.0625,489.0938 424.1875,489.0938 C421.5625,489.0938 419.5625,491.1719 419.5625,493.8906 L419.5625,495.0156 C419.5625,497.5938 421.6719,499.4844 424.5625,499.4844 C425.7813,499.4844 426.9375,499.1875 427.6875,498.6406 C428.2656,498.2344 428.5938,497.7813 428.5938,497.3906 C428.5938,496.9375 428.2031,496.5469 427.7344,496.5469 C427.5156,496.5469 427.3125,496.625 427.125,496.8125 C426.6719,497.2969 426.6719,497.2969 426.4844,497.3906 C426.0625,497.6563 425.375,497.7813 424.6094,497.7813 C422.5625,497.7813 421.2656,496.6875 421.2656,494.9844 L421.2656,493.8906 C421.2656,492.1094 422.5156,490.7969 424.25,490.7969 C424.8281,490.7969 425.4375,490.9531 425.9063,491.2031 C426.3906,491.4844 426.5625,491.7031 426.6563,492.1094 C426.7188,492.5156 426.75,492.6406 426.8906,492.7656 C427.0313,492.9063 427.2656,493.0156 427.4844,493.0156 C427.75,493.0156 428.0156,492.875 428.1875,492.6563 C428.2969,492.5 428.3281,492.3125 428.3281,491.8906 L428.3281,490.4688 C428.3281,490.0313 428.3125,489.9063 428.2188,489.75 C428.0625,489.4844 427.7813,489.3438 427.4844,489.3438 C427.1875,489.3438 426.9844,489.4375 426.7656,489.75 L426.5938,489.6719 Z " fill="#000000"/><text fill="#000000" font-family="sans-serif" font-size="14" lengthAdjust="spacing" textLength="31" x="444.75" y="498.8467">VCO</text><line style="stroke:#181818;stroke-width:0.5;" x1="359.5" x2="528.5" y1="510" y2="510"/><text fill="#000000" font-family="sans-serif" font-size="14" lengthAdjust="spacing" textLength="120" x="364.5" y="526.9951">valor_onda: float</text><text fill="#000000" font-family="sans-serif" font-size="14" lengthAdjust="spacing" textLength="79" x="364.5" y="543.292">timbre: int</text><text fill="#000000" font-family="sans-serif" font-size="14" lengthAdjust="spacing" textLength="159" x="364.5" y="559.5889">frecuencia_base: float</text><text fill="#000000" font-family="sans-serif" font-size="14" lengthAdjust="spacing" textLength="108" x="364.5" y="575.8857">volumenRL: int</text><text fill="#000000" font-family="sans-serif" font-size="14" lengthAdjust="spacing" textLength="120" x="364.5" y="592.1826">onda: Tipo_Onda</text><line style="stroke:#181818;stroke-width:0.5;" x1="359.5" x2="528.5" y1="599.4844" y2="599.4844"/><text fill="#000000" font-family="sans-serif" font-size="14" lengthAdjust="spacing" textLength="105" x="364.5" y="616.4795">GenerarOnda()</text></g><!--MD5=[3b2c9d2a76a18b2555c163fa36b00f01]
class Tipo_Onda--><g id="elem_Tipo_Onda"><rect codeLine="10" fill="#F1F1F1" height="64.2969" id="Tipo_Onda" rx="2.5" ry="2.5" style="stroke:#181818;stroke-width:0.5;" width="110" x="389" y="337.5"/><ellipse cx="404.9" cy="353.5" fill="#ADD1B2" rx="11" ry="11" style="stroke:#181818;stroke-width:1.0;"/><path d="M407.2438,349.1719 C406.3063,348.7344 405.7125,348.5938 404.8375,348.5938 C402.2125,348.5938 400.2125,350.6719 400.2125,353.3906 L400.2125,354.5156 C400.2125,357.0938 402.3219,358.9844 405.2125,358.9844 C406.4313,358.9844 407.5875,358.6875 408.3375,358.1406 C408.9156,357.7344 409.2438,357.2813 409.2438,356.8906 C409.2438,356.4375 408.8531,356.0469 408.3844,356.0469 C408.1656,356.0469 407.9625,356.125 407.775,356.3125 C407.3219,356.7969 407.3219,356.7969 407.1344,356.8906 C406.7125,357.1563 406.025,357.2813 405.2594,357.2813 C403.2125,357.2813 401.9156,356.1875 401.9156,354.4844 L401.9156,353.3906 C401.9156,351.6094 403.1656,350.2969 404.9,350.2969 C405.4781,350.2969 406.0875,350.4531 406.5563,350.7031 C407.0406,350.9844 407.2125,351.2031 407.3063,351.6094 C407.3688,352.0156 407.4,352.1406 407.5406,352.2656 C407.6813,352.4063 407.9156,352.5156 408.1344,352.5156 C408.4,352.5156 408.6656,352.375 408.8375,352.1563 C408.9469,352 408.9781,351.8125 408.9781,351.3906 L408.9781,349.9688 C408.9781,349.5313 408.9625,349.4063 408.8688,349.25 C408.7125,348.9844 408.4313,348.8438 408.1344,348.8438 C407.8375,348.8438 407.6344,348.9375 407.4156,349.25 L407.2438,349.1719 Z " fill="#000000"/><text fill="#000000" font-family="sans-serif" font-size="14" lengthAdjust="spacing" textLength="76" x="419.1" y="358.3467">Tipo_Onda</text><line style="stroke:#181818;stroke-width:0.5;" x1="390" x2="498" y1="369.5" y2="369.5"/><text fill="#000000" font-family="sans-serif" font-size="14" lengthAdjust="spacing" textLength="98" x="395" y="386.4951">TipoOnda: str</text><line style="stroke:#181818;stroke-width:0.5;" x1="390" x2="498" y1="393.7969" y2="393.7969"/></g><!--MD5=[973dfdbb921c367b79f53f57d49eaa20]
class Onda--><g id="elem_Onda"><rect codeLine="14" fill="#F1F1F1" height="80.5938" id="Onda" rx="2.5" ry="2.5" style="stroke:#181818;stroke-width:0.5;" width="119" x="384.5" y="7"/><ellipse cx="422" cy="23" fill="#ADD1B2" rx="11" ry="11" style="stroke:#181818;stroke-width:1.0;"/><path d="M424.3438,18.6719 C423.4063,18.2344 422.8125,18.0938 421.9375,18.0938 C419.3125,18.0938 417.3125,20.1719 417.3125,22.8906 L417.3125,24.0156 C417.3125,26.5938 419.4219,28.4844 422.3125,28.4844 C423.5313,28.4844 424.6875,28.1875 425.4375,27.6406 C426.0156,27.2344 426.3438,26.7813 426.3438,26.3906 C426.3438,25.9375 425.9531,25.5469 425.4844,25.5469 C425.2656,25.5469 425.0625,25.625 424.875,25.8125 C424.4219,26.2969 424.4219,26.2969 424.2344,26.3906 C423.8125,26.6563 423.125,26.7813 422.3594,26.7813 C420.3125,26.7813 419.0156,25.6875 419.0156,23.9844 L419.0156,22.8906 C419.0156,21.1094 420.2656,19.7969 422,19.7969 C422.5781,19.7969 423.1875,19.9531 423.6563,20.2031 C424.1406,20.4844 424.3125,20.7031 424.4063,21.1094 C424.4688,21.5156 424.5,21.6406 424.6406,21.7656 C424.7813,21.9063 425.0156,22.0156 425.2344,22.0156 C425.5,22.0156 425.7656,21.875 425.9375,21.6563 C426.0469,21.5 426.0781,21.3125 426.0781,20.8906 L426.0781,19.4688 C426.0781,19.0313 426.0625,18.9063 425.9688,18.75 C425.8125,18.4844 425.5313,18.3438 425.2344,18.3438 C424.9375,18.3438 424.7344,18.4375 424.5156,18.75 L424.3438,18.6719 Z " fill="#000000"/><text fill="#000000" font-family="sans-serif" font-size="14" lengthAdjust="spacing" textLength="37" x="441" y="27.8467">Onda</text><line style="stroke:#181818;stroke-width:0.5;" x1="385.5" x2="502.5" y1="39" y2="39"/><text fill="#000000" font-family="sans-serif" font-size="14" lengthAdjust="spacing" textLength="86" x="390.5" y="55.9951">nombre: str</text><line style="stroke:#181818;stroke-width:0.5;" x1="385.5" x2="502.5" y1="63.2969" y2="63.2969"/><text fill="#000000" font-family="sans-serif" font-size="14" lengthAdjust="spacing" textLength="107" x="390.5" y="80.292">formula_onda()</text></g><!--MD5=[7ad4ae31c74ca2ee06c15f4a3bb1f992]
class Filtro--><g id="elem_Filtro"><rect codeLine="19" fill="#F1F1F1" height="96.8906" id="Filtro" rx="2.5" ry="2.5" style="stroke:#181818;stroke-width:0.5;" width="93" x="784.5" y="321"/><ellipse cx="809.85" cy="337" fill="#ADD1B2" rx="11" ry="11" style="stroke:#181818;stroke-width:1.0;"/><path d="M812.1938,332.6719 C811.2563,332.2344 810.6625,332.0938 809.7875,332.0938 C807.1625,332.0938 805.1625,334.1719 805.1625,336.8906 L805.1625,338.0156 C805.1625,340.5938 807.2719,342.4844 810.1625,342.4844 C811.3813,342.4844 812.5375,342.1875 813.2875,341.6406 C813.8656,341.2344 814.1938,340.7813 814.1938,340.3906 C814.1938,339.9375 813.8031,339.5469 813.3344,339.5469 C813.1156,339.5469 812.9125,339.625 812.725,339.8125 C812.2719,340.2969 812.2719,340.2969 812.0844,340.3906 C811.6625,340.6563 810.975,340.7813 810.2094,340.7813 C808.1625,340.7813 806.8656,339.6875 806.8656,337.9844 L806.8656,336.8906 C806.8656,335.1094 808.1156,333.7969 809.85,333.7969 C810.4281,333.7969 811.0375,333.9531 811.5063,334.2031 C811.9906,334.4844 812.1625,334.7031 812.2563,335.1094 C812.3188,335.5156 812.35,335.6406 812.4906,335.7656 C812.6313,335.9063 812.8656,336.0156 813.0844,336.0156 C813.35,336.0156 813.6156,335.875 813.7875,335.6563 C813.8969,335.5 813.9281,335.3125 813.9281,334.8906 L813.9281,333.4688 C813.9281,333.0313 813.9125,332.9063 813.8188,332.75 C813.6625,332.4844 813.3813,332.3438 813.0844,332.3438 C812.7875,332.3438 812.5844,332.4375 812.3656,332.75 L812.1938,332.6719 Z " fill="#000000"/><text fill="#000000" font-family="sans-serif" font-size="14" lengthAdjust="spacing" textLength="38" x="826.15" y="341.8467">Filtro</text><line style="stroke:#181818;stroke-width:0.5;" x1="785.5" x2="876.5" y1="353" y2="353"/><text fill="#000000" font-family="sans-serif" font-size="14" lengthAdjust="spacing" textLength="60" x="790.5" y="369.9951">hz: float</text><text fill="#000000" font-family="sans-serif" font-size="14" lengthAdjust="spacing" textLength="59" x="790.5" y="386.292">tipo: str</text><line style="stroke:#181818;stroke-width:0.5;" x1="785.5" x2="876.5" y1="393.5938" y2="393.5938"/><text fill="#000000" font-family="sans-serif" font-size="14" lengthAdjust="spacing" textLength="81" x="790.5" y="410.5889">pass(): void</text></g><!--MD5=[e817a77413eaa25dee9fa31a858ede1a]
class Sonido--><g id="elem_Sonido"><rect codeLine="25" fill="#F1F1F1" height="113.1875" id="Sonido" rx="2.5" ry="2.5" style="stroke:#181818;stroke-width:0.5;" width="146" x="635" y="148"/><ellipse cx="679.25" cy="164" fill="#ADD1B2" rx="11" ry="11" style="stroke:#181818;stroke-width:1.0;"/><path d="M681.5938,159.6719 C680.6563,159.2344 680.0625,159.0938 679.1875,159.0938 C676.5625,159.0938 674.5625,161.1719 674.5625,163.8906 L674.5625,165.0156 C674.5625,167.5938 676.6719,169.4844 679.5625,169.4844 C680.7813,169.4844 681.9375,169.1875 682.6875,168.6406 C683.2656,168.2344 683.5938,167.7813 683.5938,167.3906 C683.5938,166.9375 683.2031,166.5469 682.7344,166.5469 C682.5156,166.5469 682.3125,166.625 682.125,166.8125 C681.6719,167.2969 681.6719,167.2969 681.4844,167.3906 C681.0625,167.6563 680.375,167.7813 679.6094,167.7813 C677.5625,167.7813 676.2656,166.6875 676.2656,164.9844 L676.2656,163.8906 C676.2656,162.1094 677.5156,160.7969 679.25,160.7969 C679.8281,160.7969 680.4375,160.9531 680.9063,161.2031 C681.3906,161.4844 681.5625,161.7031 681.6563,162.1094 C681.7188,162.5156 681.75,162.6406 681.8906,162.7656 C682.0313,162.9063 682.2656,163.0156 682.4844,163.0156 C682.75,163.0156 683.0156,162.875 683.1875,162.6563 C683.2969,162.5 683.3281,162.3125 683.3281,161.8906 L683.3281,160.4688 C683.3281,160.0313 683.3125,159.9063 683.2188,159.75 C683.0625,159.4844 682.7813,159.3438 682.4844,159.3438 C682.1875,159.3438 681.9844,159.4375 681.7656,159.75 L681.5938,159.6719 Z " fill="#000000"/><text fill="#000000" font-family="sans-serif" font-size="14" lengthAdjust="spacing" textLength="49" x="699.75" y="168.8467">Sonido</text><line style="stroke:#181818;stroke-width:0.5;" x1="636" x2="780" y1="180" y2="180"/><text fill="#000000" font-family="sans-serif" font-size="14" lengthAdjust="spacing" textLength="104" x="641" y="196.9951">volumen: float</text><text fill="#000000" font-family="sans-serif" font-size="14" lengthAdjust="spacing" textLength="79" x="641" y="213.292">adsr: ADSR</text><line style="stroke:#181818;stroke-width:0.5;" x1="636" x2="780" y1="220.5938" y2="220.5938"/><text fill="#000000" font-family="sans-serif" font-size="14" lengthAdjust="spacing" textLength="95" x="641" y="237.5889">adsrMetodo()</text><text fill="#000000" font-family="sans-serif" font-size="14" lengthAdjust="spacing" textLength="134" x="641" y="253.8857">reproducirSonido()</text></g><!--MD5=[0d039fafee631a46207f601ca5623940]
class ADSR--><g id="elem_ADSR"><rect codeLine="32" fill="#F1F1F1" height="113.1875" id="ADSR" rx="2.5" ry="2.5" style="stroke:#181818;stroke-width:0.5;" width="72" x="7" y="494.5"/><ellipse cx="22" cy="510.5" fill="#ADD1B2" rx="11" ry="11" style="stroke:#181818;stroke-width:1.0;"/><path d="M24.3438,506.1719 C23.4063,505.7344 22.8125,505.5938 21.9375,505.5938 C19.3125,505.5938 17.3125,507.6719 17.3125,510.3906 L17.3125,511.5156 C17.3125,514.0938 19.4219,515.9844 22.3125,515.9844 C23.5313,515.9844 24.6875,515.6875 25.4375,515.1406 C26.0156,514.7344 26.3438,514.2813 26.3438,513.8906 C26.3438,513.4375 25.9531,513.0469 25.4844,513.0469 C25.2656,513.0469 25.0625,513.125 24.875,513.3125 C24.4219,513.7969 24.4219,513.7969 24.2344,513.8906 C23.8125,514.1563 23.125,514.2813 22.3594,514.2813 C20.3125,514.2813 19.0156,513.1875 19.0156,511.4844 L19.0156,510.3906 C19.0156,508.6094 20.2656,507.2969 22,507.2969 C22.5781,507.2969 23.1875,507.4531 23.6563,507.7031 C24.1406,507.9844 24.3125,508.2031 24.4063,508.6094 C24.4688,509.0156 24.5,509.1406 24.6406,509.2656 C24.7813,509.4063 25.0156,509.5156 25.2344,509.5156 C25.5,509.5156 25.7656,509.375 25.9375,509.1563 C26.0469,509 26.0781,508.8125 26.0781,508.3906 L26.0781,506.9688 C26.0781,506.5313 26.0625,506.4063 25.9688,506.25 C25.8125,505.9844 25.5313,505.8438 25.2344,505.8438 C24.9375,505.8438 24.7344,505.9375 24.5156,506.25 L24.3438,506.1719 Z " fill="#000000"/><text fill="#000000" font-family="sans-serif" font-size="14" lengthAdjust="spacing" textLength="40" x="36" y="515.3467">ADSR</text><line style="stroke:#181818;stroke-width:0.5;" x1="8" x2="78" y1="526.5" y2="526.5"/><text fill="#000000" font-family="sans-serif" font-size="14" lengthAdjust="spacing" textLength="51" x="13" y="543.4951">a: float</text><text fill="#000000" font-family="sans-serif" font-size="14" lengthAdjust="spacing" textLength="52" x="13" y="559.792">d: float</text><text fill="#000000" font-family="sans-serif" font-size="14" lengthAdjust="spacing" textLength="50" x="13" y="576.0889">s: float</text><text fill="#000000" font-family="sans-serif" font-size="14" lengthAdjust="spacing" textLength="49" x="13" y="592.3857">r: float</text><line style="stroke:#181818;stroke-width:0.5;" x1="8" x2="78" y1="599.6875" y2="599.6875"/></g><!--MD5=[bf5661104e0b571731001c41b9839ecf]
class Notas--><g id="elem_Notas"><rect codeLine="39" fill="#F1F1F1" height="64.2969" id="Notas" rx="2.5" ry="2.5" style="stroke:#181818;stroke-width:0.5;" width="88" x="175" y="684"/><ellipse cx="196.75" cy="700" fill="#ADD1B2" rx="11" ry="11" style="stroke:#181818;stroke-width:1.0;"/><path d="M199.0938,695.6719 C198.1563,695.2344 197.5625,695.0938 196.6875,695.0938 C194.0625,695.0938 192.0625,697.1719 192.0625,699.8906 L192.0625,701.0156 C192.0625,703.5938 194.1719,705.4844 197.0625,705.4844 C198.2813,705.4844 199.4375,705.1875 200.1875,704.6406 C200.7656,704.2344 201.0938,703.7813 201.0938,703.3906 C201.0938,702.9375 200.7031,702.5469 200.2344,702.5469 C200.0156,702.5469 199.8125,702.625 199.625,702.8125 C199.1719,703.2969 199.1719,703.2969 198.9844,703.3906 C198.5625,703.6563 197.875,703.7813 197.1094,703.7813 C195.0625,703.7813 193.7656,702.6875 193.7656,700.9844 L193.7656,699.8906 C193.7656,698.1094 195.0156,696.7969 196.75,696.7969 C197.3281,696.7969 197.9375,696.9531 198.4063,697.2031 C198.8906,697.4844 199.0625,697.7031 199.1563,698.1094 C199.2188,698.5156 199.25,698.6406 199.3906,698.7656 C199.5313,698.9063 199.7656,699.0156 199.9844,699.0156 C200.25,699.0156 200.5156,698.875 200.6875,698.6563 C200.7969,698.5 200.8281,698.3125 200.8281,697.8906 L200.8281,696.4688 C200.8281,696.0313 200.8125,695.9063 200.7188,695.75 C200.5625,695.4844 200.2813,695.3438 199.9844,695.3438 C199.6875,695.3438 199.4844,695.4375 199.2656,695.75 L199.0938,695.6719 Z " fill="#000000"/><text fill="#000000" font-family="sans-serif" font-size="14" lengthAdjust="spacing" textLength="41" x="212.25" y="704.8467">Notas</text><line style="stroke:#181818;stroke-width:0.5;" x1="176" x2="262" y1="716" y2="716"/><text fill="#000000" font-family="sans-serif" font-size="14" lengthAdjust="spacing" textLength="76" x="181" y="732.9951">nota: float</text><line style="stroke:#181818;stroke-width:0.5;" x1="176" x2="262" y1="740.2969" y2="740.2969"/></g><!--MD5=[738a82f535113702cba13d50dc171152]
class Teclado_generador_nota--><g id="elem_Teclado_generador_nota"><rect codeLine="43" fill="#F1F1F1" height="96.8906" id="Teclado_generador_nota" rx="2.5" ry="2.5" style="stroke:#181818;stroke-width:0.5;" width="209" x="114.5" y="502.5"/><ellipse cx="129.5" cy="518.5" fill="#ADD1B2" rx="11" ry="11" style="stroke:#181818;stroke-width:1.0;"/><path d="M131.8438,514.1719 C130.9063,513.7344 130.3125,513.5938 129.4375,513.5938 C126.8125,513.5938 124.8125,515.6719 124.8125,518.3906 L124.8125,519.5156 C124.8125,522.0938 126.9219,523.9844 129.8125,523.9844 C131.0313,523.9844 132.1875,523.6875 132.9375,523.1406 C133.5156,522.7344 133.8438,522.2813 133.8438,521.8906 C133.8438,521.4375 133.4531,521.0469 132.9844,521.0469 C132.7656,521.0469 132.5625,521.125 132.375,521.3125 C131.9219,521.7969 131.9219,521.7969 131.7344,521.8906 C131.3125,522.1563 130.625,522.2813 129.8594,522.2813 C127.8125,522.2813 126.5156,521.1875 126.5156,519.4844 L126.5156,518.3906 C126.5156,516.6094 127.7656,515.2969 129.5,515.2969 C130.0781,515.2969 130.6875,515.4531 131.1563,515.7031 C131.6406,515.9844 131.8125,516.2031 131.9063,516.6094 C131.9688,517.0156 132,517.1406 132.1406,517.2656 C132.2813,517.4063 132.5156,517.5156 132.7344,517.5156 C133,517.5156 133.2656,517.375 133.4375,517.1563 C133.5469,517 133.5781,516.8125 133.5781,516.3906 L133.5781,514.9688 C133.5781,514.5313 133.5625,514.4063 133.4688,514.25 C133.3125,513.9844 133.0313,513.8438 132.7344,513.8438 C132.4375,513.8438 132.2344,513.9375 132.0156,514.25 L131.8438,514.1719 Z " fill="#000000"/><text fill="#000000" font-family="sans-serif" font-size="14" lengthAdjust="spacing" textLength="177" x="143.5" y="523.3467">Teclado_generador_nota</text><line style="stroke:#181818;stroke-width:0.5;" x1="115.5" x2="322.5" y1="534.5" y2="534.5"/><text fill="#000000" font-family="sans-serif" font-size="14" lengthAdjust="spacing" textLength="84" x="120.5" y="551.4951">octavas: int</text><text fill="#000000" font-family="sans-serif" font-size="14" lengthAdjust="spacing" textLength="113" x="120.5" y="567.792">sensibilidad: int</text><line style="stroke:#181818;stroke-width:0.5;" x1="115.5" x2="322.5" y1="575.0938" y2="575.0938"/><text fill="#000000" font-family="sans-serif" font-size="14" lengthAdjust="spacing" textLength="95" x="120.5" y="592.0889">TocarTeclas()</text></g><!--MD5=[9171bcba24445f515a796366fadf30bb]
class Sine--><g id="elem_Sine"><rect codeLine="49" fill="#F1F1F1" height="48" id="Sine" rx="2.5" ry="2.5" style="stroke:#181818;stroke-width:0.5;" width="63" x="524.5" y="180.5"/><ellipse cx="539.5" cy="196.5" fill="#ADD1B2" rx="11" ry="11" style="stroke:#181818;stroke-width:1.0;"/><path d="M541.8438,192.1719 C540.9063,191.7344 540.3125,191.5938 539.4375,191.5938 C536.8125,191.5938 534.8125,193.6719 534.8125,196.3906 L534.8125,197.5156 C534.8125,200.0938 536.9219,201.9844 539.8125,201.9844 C541.0313,201.9844 542.1875,201.6875 542.9375,201.1406 C543.5156,200.7344 543.8438,200.2813 543.8438,199.8906 C543.8438,199.4375 543.4531,199.0469 542.9844,199.0469 C542.7656,199.0469 542.5625,199.125 542.375,199.3125 C541.9219,199.7969 541.9219,199.7969 541.7344,199.8906 C541.3125,200.1563 540.625,200.2813 539.8594,200.2813 C537.8125,200.2813 536.5156,199.1875 536.5156,197.4844 L536.5156,196.3906 C536.5156,194.6094 537.7656,193.2969 539.5,193.2969 C540.0781,193.2969 540.6875,193.4531 541.1563,193.7031 C541.6406,193.9844 541.8125,194.2031 541.9063,194.6094 C541.9688,195.0156 542,195.1406 542.1406,195.2656 C542.2813,195.4063 542.5156,195.5156 542.7344,195.5156 C543,195.5156 543.2656,195.375 543.4375,195.1563 C543.5469,195 543.5781,194.8125 543.5781,194.3906 L543.5781,192.9688 C543.5781,192.5313 543.5625,192.4063 543.4688,192.25 C543.3125,191.9844 543.0313,191.8438 542.7344,191.8438 C542.4375,191.8438 542.2344,191.9375 542.0156,192.25 L541.8438,192.1719 Z " fill="#000000"/><text fill="#000000" font-family="sans-serif" font-size="14" lengthAdjust="spacing" textLength="31" x="553.5" y="201.3467">Sine</text><line style="stroke:#181818;stroke-width:0.5;" x1="525.5" x2="586.5" y1="212.5" y2="212.5"/><line style="stroke:#181818;stroke-width:0.5;" x1="525.5" x2="586.5" y1="220.5" y2="220.5"/></g><!--MD5=[5655ee3e2a0d028d03fe20f829576392]
class Square--><g id="elem_Square"><rect codeLine="51" fill="#F1F1F1" height="48" id="Square" rx="2.5" ry="2.5" style="stroke:#181818;stroke-width:0.5;" width="81" x="282.5" y="180.5"/><ellipse cx="297.5" cy="196.5" fill="#ADD1B2" rx="11" ry="11" style="stroke:#181818;stroke-width:1.0;"/><path d="M299.8438,192.1719 C298.9063,191.7344 298.3125,191.5938 297.4375,191.5938 C294.8125,191.5938 292.8125,193.6719 292.8125,196.3906 L292.8125,197.5156 C292.8125,200.0938 294.9219,201.9844 297.8125,201.9844 C299.0313,201.9844 300.1875,201.6875 300.9375,201.1406 C301.5156,200.7344 301.8438,200.2813 301.8438,199.8906 C301.8438,199.4375 301.4531,199.0469 300.9844,199.0469 C300.7656,199.0469 300.5625,199.125 300.375,199.3125 C299.9219,199.7969 299.9219,199.7969 299.7344,199.8906 C299.3125,200.1563 298.625,200.2813 297.8594,200.2813 C295.8125,200.2813 294.5156,199.1875 294.5156,197.4844 L294.5156,196.3906 C294.5156,194.6094 295.7656,193.2969 297.5,193.2969 C298.0781,193.2969 298.6875,193.4531 299.1563,193.7031 C299.6406,193.9844 299.8125,194.2031 299.9063,194.6094 C299.9688,195.0156 300,195.1406 300.1406,195.2656 C300.2813,195.4063 300.5156,195.5156 300.7344,195.5156 C301,195.5156 301.2656,195.375 301.4375,195.1563 C301.5469,195 301.5781,194.8125 301.5781,194.3906 L301.5781,192.9688 C301.5781,192.5313 301.5625,192.4063 301.4688,192.25 C301.3125,191.9844 301.0313,191.8438 300.7344,191.8438 C300.4375,191.8438 300.2344,191.9375 300.0156,192.25 L299.8438,192.1719 Z " fill="#000000"/><text fill="#000000" font-family="sans-serif" font-size="14" lengthAdjust="spacing" textLength="49" x="311.5" y="201.3467">Square</text><line style="stroke:#181818;stroke-width:0.5;" x1="283.5" x2="362.5" y1="212.5" y2="212.5"/><line style="stroke:#181818;stroke-width:0.5;" x1="283.5" x2="362.5" y1="220.5" y2="220.5"/></g><!--MD5=[40b067e448d061f8c1f714bff454de58]
class Triangle--><g id="elem_Triangle"><rect codeLine="53" fill="#F1F1F1" height="48" id="Triangle" rx="2.5" ry="2.5" style="stroke:#181818;stroke-width:0.5;" width="90" x="399" y="180.5"/><ellipse cx="414" cy="196.5" fill="#ADD1B2" rx="11" ry="11" style="stroke:#181818;stroke-width:1.0;"/><path d="M416.3438,192.1719 C415.4063,191.7344 414.8125,191.5938 413.9375,191.5938 C411.3125,191.5938 409.3125,193.6719 409.3125,196.3906 L409.3125,197.5156 C409.3125,200.0938 411.4219,201.9844 414.3125,201.9844 C415.5313,201.9844 416.6875,201.6875 417.4375,201.1406 C418.0156,200.7344 418.3438,200.2813 418.3438,199.8906 C418.3438,199.4375 417.9531,199.0469 417.4844,199.0469 C417.2656,199.0469 417.0625,199.125 416.875,199.3125 C416.4219,199.7969 416.4219,199.7969 416.2344,199.8906 C415.8125,200.1563 415.125,200.2813 414.3594,200.2813 C412.3125,200.2813 411.0156,199.1875 411.0156,197.4844 L411.0156,196.3906 C411.0156,194.6094 412.2656,193.2969 414,193.2969 C414.5781,193.2969 415.1875,193.4531 415.6563,193.7031 C416.1406,193.9844 416.3125,194.2031 416.4063,194.6094 C416.4688,195.0156 416.5,195.1406 416.6406,195.2656 C416.7813,195.4063 417.0156,195.5156 417.2344,195.5156 C417.5,195.5156 417.7656,195.375 417.9375,195.1563 C418.0469,195 418.0781,194.8125 418.0781,194.3906 L418.0781,192.9688 C418.0781,192.5313 418.0625,192.4063 417.9688,192.25 C417.8125,191.9844 417.5313,191.8438 417.2344,191.8438 C416.9375,191.8438 416.7344,191.9375 416.5156,192.25 L416.3438,192.1719 Z " fill="#000000"/><text fill="#000000" font-family="sans-serif" font-size="14" lengthAdjust="spacing" textLength="58" x="428" y="201.3467">Triangle</text><line style="stroke:#181818;stroke-width:0.5;" x1="400" x2="488" y1="212.5" y2="212.5"/><line style="stroke:#181818;stroke-width:0.5;" x1="400" x2="488" y1="220.5" y2="220.5"/></g><!--MD5=[9041126a81ac65ce07c077ab2a1d9e6d]
class VCO1--><g id="elem_VCO1"><rect codeLine="56" fill="#F1F1F1" height="48" id="VCO1" rx="2.5" ry="2.5" style="stroke:#181818;stroke-width:0.5;" width="72" x="672" y="527"/><ellipse cx="687" cy="543" fill="#ADD1B2" rx="11" ry="11" style="stroke:#181818;stroke-width:1.0;"/><path d="M689.3438,538.6719 C688.4063,538.2344 687.8125,538.0938 686.9375,538.0938 C684.3125,538.0938 682.3125,540.1719 682.3125,542.8906 L682.3125,544.0156 C682.3125,546.5938 684.4219,548.4844 687.3125,548.4844 C688.5313,548.4844 689.6875,548.1875 690.4375,547.6406 C691.0156,547.2344 691.3438,546.7813 691.3438,546.3906 C691.3438,545.9375 690.9531,545.5469 690.4844,545.5469 C690.2656,545.5469 690.0625,545.625 689.875,545.8125 C689.4219,546.2969 689.4219,546.2969 689.2344,546.3906 C688.8125,546.6563 688.125,546.7813 687.3594,546.7813 C685.3125,546.7813 684.0156,545.6875 684.0156,543.9844 L684.0156,542.8906 C684.0156,541.1094 685.2656,539.7969 687,539.7969 C687.5781,539.7969 688.1875,539.9531 688.6563,540.2031 C689.1406,540.4844 689.3125,540.7031 689.4063,541.1094 C689.4688,541.5156 689.5,541.6406 689.6406,541.7656 C689.7813,541.9063 690.0156,542.0156 690.2344,542.0156 C690.5,542.0156 690.7656,541.875 690.9375,541.6563 C691.0469,541.5 691.0781,541.3125 691.0781,540.8906 L691.0781,539.4688 C691.0781,539.0313 691.0625,538.9063 690.9688,538.75 C690.8125,538.4844 690.5313,538.3438 690.2344,538.3438 C689.9375,538.3438 689.7344,538.4375 689.5156,538.75 L689.3438,538.6719 Z " fill="#000000"/><text fill="#000000" font-family="sans-serif" font-size="14" lengthAdjust="spacing" textLength="40" x="701" y="547.8467">VCO1</text><line style="stroke:#181818;stroke-width:0.5;" x1="673" x2="743" y1="559" y2="559"/><line style="stroke:#181818;stroke-width:0.5;" x1="673" x2="743" y1="567" y2="567"/></g><!--MD5=[7c56ef2a2793026fbf2b816d41d3cdb5]
class VCO2--><g id="elem_VCO2"><rect codeLine="58" fill="#F1F1F1" height="48" id="VCO2" rx="2.5" ry="2.5" style="stroke:#181818;stroke-width:0.5;" width="71" x="779.5" y="527"/><ellipse cx="794.5" cy="543" fill="#ADD1B2" rx="11" ry="11" style="stroke:#181818;stroke-width:1.0;"/><path d="M796.8438,538.6719 C795.9063,538.2344 795.3125,538.0938 794.4375,538.0938 C791.8125,538.0938 789.8125,540.1719 789.8125,542.8906 L789.8125,544.0156 C789.8125,546.5938 791.9219,548.4844 794.8125,548.4844 C796.0313,548.4844 797.1875,548.1875 797.9375,547.6406 C798.5156,547.2344 798.8438,546.7813 798.8438,546.3906 C798.8438,545.9375 798.4531,545.5469 797.9844,545.5469 C797.7656,545.5469 797.5625,545.625 797.375,545.8125 C796.9219,546.2969 796.9219,546.2969 796.7344,546.3906 C796.3125,546.6563 795.625,546.7813 794.8594,546.7813 C792.8125,546.7813 791.5156,545.6875 791.5156,543.9844 L791.5156,542.8906 C791.5156,541.1094 792.7656,539.7969 794.5,539.7969 C795.0781,539.7969 795.6875,539.9531 796.1563,540.2031 C796.6406,540.4844 796.8125,540.7031 796.9063,541.1094 C796.9688,541.5156 797,541.6406 797.1406,541.7656 C797.2813,541.9063 797.5156,542.0156 797.7344,542.0156 C798,542.0156 798.2656,541.875 798.4375,541.6563 C798.5469,541.5 798.5781,541.3125 798.5781,540.8906 L798.5781,539.4688 C798.5781,539.0313 798.5625,538.9063 798.4688,538.75 C798.3125,538.4844 798.0313,538.3438 797.7344,538.3438 C797.4375,538.3438 797.2344,538.4375 797.0156,538.75 L796.8438,538.6719 Z " fill="#000000"/><text fill="#000000" font-family="sans-serif" font-size="14" lengthAdjust="spacing" textLength="39" x="808.5" y="547.8467">VCO2</text><line style="stroke:#181818;stroke-width:0.5;" x1="780.5" x2="849.5" y1="559" y2="559"/><line style="stroke:#181818;stroke-width:0.5;" x1="780.5" x2="849.5" y1="567" y2="567"/></g><!--MD5=[c8fecf5866093e9552d306c0b5b13707]
class VCO3--><g id="elem_VCO3"><rect codeLine="60" fill="#F1F1F1" height="48" id="VCO3" rx="2.5" ry="2.5" style="stroke:#181818;stroke-width:0.5;" width="72" x="565" y="527"/><ellipse cx="580" cy="543" fill="#ADD1B2" rx="11" ry="11" style="stroke:#181818;stroke-width:1.0;"/><path d="M582.3438,538.6719 C581.4063,538.2344 580.8125,538.0938 579.9375,538.0938 C577.3125,538.0938 575.3125,540.1719 575.3125,542.8906 L575.3125,544.0156 C575.3125,546.5938 577.4219,548.4844 580.3125,548.4844 C581.5313,548.4844 582.6875,548.1875 583.4375,547.6406 C584.0156,547.2344 584.3438,546.7813 584.3438,546.3906 C584.3438,545.9375 583.9531,545.5469 583.4844,545.5469 C583.2656,545.5469 583.0625,545.625 582.875,545.8125 C582.4219,546.2969 582.4219,546.2969 582.2344,546.3906 C581.8125,546.6563 581.125,546.7813 580.3594,546.7813 C578.3125,546.7813 577.0156,545.6875 577.0156,543.9844 L577.0156,542.8906 C577.0156,541.1094 578.2656,539.7969 580,539.7969 C580.5781,539.7969 581.1875,539.9531 581.6563,540.2031 C582.1406,540.4844 582.3125,540.7031 582.4063,541.1094 C582.4688,541.5156 582.5,541.6406 582.6406,541.7656 C582.7813,541.9063 583.0156,542.0156 583.2344,542.0156 C583.5,542.0156 583.7656,541.875 583.9375,541.6563 C584.0469,541.5 584.0781,541.3125 584.0781,540.8906 L584.0781,539.4688 C584.0781,539.0313 584.0625,538.9063 583.9688,538.75 C583.8125,538.4844 583.5313,538.3438 583.2344,538.3438 C582.9375,538.3438 582.7344,538.4375 582.5156,538.75 L582.3438,538.6719 Z " fill="#000000"/><text fill="#000000" font-family="sans-serif" font-size="14" lengthAdjust="spacing" textLength="40" x="594" y="547.8467">VCO3</text><line style="stroke:#181818;stroke-width:0.5;" x1="566" x2="636" y1="559" y2="559"/><line style="stroke:#181818;stroke-width:0.5;" x1="566" x2="636" y1="567" y2="567"/></g><ellipse cx="708" cy="369.5" fill="#000000" rx="2" ry="2" style="stroke:none;stroke-width:1.0;"/><ellipse cx="747" cy="369.5" fill="#000000" rx="2" ry="2" style="stroke:none;stroke-width:1.0;"/><ellipse cx="669" cy="369.5" fill="#000000" rx="2" ry="2" style="stroke:none;stroke-width:1.0;"/><!--MD5=[3b056943a1fcda833bc2f6214822a321]
link Sonido to apoint1745617--><g id="link_Sonido_apoint1745617"><path d="M708,261.139 C708,304.67 708,359.182 708,367.434 " fill="none" id="Sonido-apoint1745617" style="stroke:#181818;stroke-width:1.0;"/></g><!--MD5=[372f3ab1e32cc89752d70880f467ebca]
link apoint1745617 to VCO1--><g id="link_apoint1745617_VCO1"><path d="M708,371.646 C708,383.321 708,481.179 708,526.781 " fill="none" id="apoint1745617-VCO1" style="stroke:#181818;stroke-width:1.0;"/></g><!--MD5=[fd86f0fa9ce8e68a711f02fc9c27427f]
link apoint1745617 to Filtro--><g id="link_apoint1745617_Filtro"><path d="M708.176,367.504 C709.222,357.019 715.639,308.151 745.5,291 C767.954,278.103 789.409,297.932 805.21,320.883 " fill="none" id="apoint1745617-Filtro" style="stroke:#181818;stroke-width:1.0;stroke-dasharray:7.0,7.0;"/></g><!--MD5=[b42b737e432c927e685f4f96abf43608]
link Sonido to apoint1745622--><g id="link_Sonido_apoint1745622"><path d="M721.313,261.139 C731.728,304.67 744.771,359.182 746.745,367.434 " fill="none" id="Sonido-apoint1745622" style="stroke:#181818;stroke-width:1.0;"/></g><!--MD5=[fccbae829c7a45bd6caad9fabc38d575]
link apoint1745622 to VCO2--><g id="link_apoint1745622_VCO2"><path d="M747.434,371.646 C751.857,383.321 788.929,481.179 806.204,526.781 " fill="none" id="apoint1745622-VCO2" style="stroke:#181818;stroke-width:1.0;"/></g><!--MD5=[5e489580876f5655dbc62c701bc967f1]
link apoint1745622 to Filtro--><g id="link_apoint1745622_Filtro"><path d="M749.297,369.5 C760.999,369.5 772.701,369.5 784.404,369.5 " fill="none" id="apoint1745622-Filtro" style="stroke:#181818;stroke-width:1.0;stroke-dasharray:7.0,7.0;"/></g><!--MD5=[d94a3cc73653cda901b23941d2857313]
link Sonido to apoint1745627--><g id="link_Sonido_apoint1745627"><path d="M694.687,261.139 C684.272,304.67 671.229,359.182 669.255,367.434 " fill="none" id="Sonido-apoint1745627" style="stroke:#181818;stroke-width:1.0;"/></g><!--MD5=[76590acea8c7a0cfaeee0aaeaa13be59]
link apoint1745627 to VCO3--><g id="link_apoint1745627_VCO3"><path d="M668.566,371.646 C664.143,383.321 627.071,481.179 609.796,526.781 " fill="none" id="apoint1745627-VCO3" style="stroke:#181818;stroke-width:1.0;"/></g><!--MD5=[26c1c071e8432bfa4a72d7f7637b9e90]
link apoint1745627 to Filtro--><g id="link_apoint1745627_Filtro"><path d="M669.176,367.504 C670.222,357.019 676.639,308.151 706.5,291 C735.97,274.074 768.423,295.923 792.805,320.826 " fill="none" id="apoint1745627-Filtro" style="stroke:#181818;stroke-width:1.0;stroke-dasharray:7.0,7.0;"/></g><!--MD5=[3d454e6785b847a445894cfc809111de]
reverse link VCO to VCO1--><g id="link_VCO_VCO1"><path codeLine="69" d="M529.438,466.167 C540.551,458.826 552.327,452.494 564.5,448 C594.937,436.764 608.802,432.866 637.5,448 C668.743,464.476 688.782,501.728 699.218,526.62 " fill="none" id="VCO-backto-VCO1" style="stroke:#181818;stroke-width:1.0;"/><polygon fill="none" points="533.423,471.923,513.116,477.975,525.217,460.581,533.423,471.923" style="stroke:#181818;stroke-width:1.0;"/></g><!--MD5=[602b68edf44f99b061c77aa88e95a680]
reverse link VCO to VCO2--><g id="link_VCO_VCO2"><path codeLine="70" d="M529.438,466.167 C540.551,458.826 552.327,452.494 564.5,448 C639.55,420.296 673.737,410.683 744.5,448 C775.743,464.476 795.782,501.728 806.218,526.62 " fill="none" id="VCO-backto-VCO2" style="stroke:#181818;stroke-width:1.0;"/><polygon fill="none" points="533.423,471.923,513.116,477.975,525.217,460.581,533.423,471.923" style="stroke:#181818;stroke-width:1.0;"/></g><!--MD5=[6cbc448955933d1b284f1cb4b8fd0b2e]
reverse link VCO to VCO3--><g id="link_VCO_VCO3"><path codeLine="71" d="M549.767,551 C554.844,551 559.921,551 564.997,551 " fill="none" id="VCO-backto-VCO3" style="stroke:#181818;stroke-width:1.0;"/><polygon fill="none" points="549.553,558,529.553,551,549.553,544,549.553,558" style="stroke:#181818;stroke-width:1.0;"/></g><!--MD5=[9e9f8b73b0a17579a10a5c46fde1934a]
link Tipo_Onda to VCO--><g id="link_Tipo_Onda_VCO"><path codeLine="73" d="M444,401.767 C444,422.76 444,451.314 444,477.758 " fill="none" id="Tipo_Onda-VCO" style="stroke:#181818;stroke-width:1.0;"/></g><!--MD5=[d0637aa46a752641387488e9f0d99e1f]
link Sine to Tipo_Onda--><g id="link_Sine_Tipo_Onda"><path codeLine="74" d="M540.191,228.508 C520.654,256.941 487.324,305.449 465.481,337.238 " fill="none" id="Sine-Tipo_Onda" style="stroke:#181818;stroke-width:1.0;"/></g><!--MD5=[6040df383c143d8b2d7a3894b0d666d2]
link Square to Tipo_Onda--><g id="link_Square_Tipo_Onda"><path codeLine="75" d="M340.08,228.508 C361.186,256.941 397.195,305.449 420.793,337.238 " fill="none" id="Square-Tipo_Onda" style="stroke:#181818;stroke-width:1.0;"/></g><!--MD5=[8777e18d0059e82716365b4e23c2bff7]
link Triangle to Tipo_Onda--><g id="link_Triangle_Tipo_Onda"><path codeLine="76" d="M444,228.508 C444,256.941 444,305.449 444,337.238 " fill="none" id="Triangle-Tipo_Onda" style="stroke:#181818;stroke-width:1.0;"/></g><!--MD5=[bb2823404b6f03f235a8f198925161f6]
reverse link Onda to Sine--><g id="link_Onda_Sine"><path codeLine="77" d="M484.511,104.565 C503.424,130.739 524.895,160.453 539.328,180.427 " fill="none" id="Onda-backto-Sine" style="stroke:#181818;stroke-width:1.0;"/><polygon fill="none" points="478.592,108.325,472.552,88.014,489.94,100.125,478.592,108.325" style="stroke:#181818;stroke-width:1.0;"/></g><!--MD5=[6d833ada70acac1d0b9eec5352f5042e]
reverse link Onda to Square--><g id="link_Onda_Square"><path codeLine="78" d="M400.816,103.818 C380.243,130.172 356.753,160.263 341.012,180.427 " fill="none" id="Onda-backto-Square" style="stroke:#181818;stroke-width:1.0;"/><polygon fill="none" points="395.329,99.472,413.154,88.014,406.364,108.087,395.329,99.472" style="stroke:#181818;stroke-width:1.0;"/></g><!--MD5=[61dc7168c9966828bd87536f62b19ac0]
reverse link Onda to Triangle--><g id="link_Onda_Triangle"><path codeLine="79" d="M444,108.327 C444,133.547 444,161.404 444,180.427 " fill="none" id="Onda-backto-Triangle" style="stroke:#181818;stroke-width:1.0;"/><polygon fill="none" points="437,108.014,444,88.014,451,108.014,437,108.014" style="stroke:#181818;stroke-width:1.0;"/></g><!--MD5=[20252c95937af5b89a1fbca12090866b]
link Teclado_generador_nota to VCO--><g id="link_Teclado_generador_nota_VCO"><path codeLine="81" d="M323.59,551 C335.192,551 346.794,551 358.396,551 " fill="none" id="Teclado_generador_nota-VCO" style="stroke:#181818;stroke-width:1.0;"/></g><!--MD5=[c48604051b5a9d1d73b45660435cf780]
link ADSR to Teclado_generador_nota--><g id="link_ADSR_Teclado_generador_nota"><path codeLine="82" d="M79.0938,551 C90.8437,551 102.5936,551 114.344,551 " fill="none" id="ADSR-Teclado_generador_nota" style="stroke:#181818;stroke-width:1.0;"/></g><!--MD5=[ed7fe1057bece289c62c7e8b5b22d681]
reverse link Teclado_generador_nota to Notas--><g id="link_Teclado_generador_nota_Notas"><path codeLine="83" d="M219,612.656 C219,636.775 219,663.5035 219,683.5961 " fill="none" id="Teclado_generador_nota-backto-Notas" style="stroke:#181818;stroke-width:1.0;"/><polygon fill="#181818" points="219,599.585,215,605.585,219,611.585,223,605.585,219,599.585" style="stroke:#181818;stroke-width:1.0;"/><text fill="#000000" font-family="sans-serif" font-size="13" lengthAdjust="spacing" textLength="36" x="180.4688" y="619.5559">36...n</text></g><!--MD5=[2170e26e9806131f86d2032e026a4040]
@startuml
class VCO{
valor_onda: float
timbre: int
frecuencia_base: float
volumenRL: int
onda: Tipo_Onda
GenerarOnda()
}

class Tipo_Onda{
TipoOnda: str
}

class Onda{
nombre: str
formula_onda()
}

class Filtro{
hz: float
tipo: str
pass(): void
}

class Sonido{
volumen: float
adsr: ADSR
adsrMetodo()
reproducirSonido()
}

class ADSR{
a: float
d: float
s: float
r: float
}

class Notas{
nota: float
}

class Teclado_generador_nota{
octavas: int
sensibilidad: int
TocarTeclas()
}

class Sine{
}
class Square{
}
class Triangle{
}

class VCO1{
}
class VCO2{
}
class VCO3{
}

Sonido - - VCO1
Sonido - - VCO2
Sonido - - VCO3
(Sonido, VCO1) .. Filtro
(Sonido, VCO2) .. Filtro
(Sonido, VCO3) .. Filtro
VCO <|- VCO1
VCO <|- VCO2
VCO <|- VCO3

Tipo_Onda - - VCO 
Sine - - Tipo_Onda
Square - - Tipo_Onda
Triangle - - Tipo_Onda
Onda <|- - Sine
Onda <|- - Square
Onda <|- - Triangle

Teclado_generador_nota - VCO
ADSR - Teclado_generador_nota
Teclado_generador_nota "36...n" *- - Notas
@enduml

PlantUML version 1.2022.4beta2(Unknown compile time)
(GPL source distribution)
Java Runtime: Java(TM) SE Runtime Environment
JVM: Java HotSpot(TM) 64-Bit Server VM
Default Encoding: UTF-8
Language: en
Country: US
--></g></svg>
